# xmcd CD database file
#
# Track frame offsets:
#	150
#	16977
#	40498
#	60036
#	79652
#	96032
#	120437
#	152257
#	166202
#	186145
#	204143
#	224158
#	245985
#	267594
#	284773
#
# Disc length: 3985 seconds
#
# Revision: 0
# Processed by: cddbd v1.4PL0 Copyright (c) Steve Scherf et al.
# Submitted via: CDex 1.50
#
DISCID=ce0f8f0f
DTITLE=SON CHEVERE - Musica para bailar
DYEAR=2002
DGENRE=Salsa
TTITLE0=LA CANANDONGA
TTITLE1=LA BOLITA
TTITLE2=VEREDA TROPICAL
TTITLE3=LA COMPARSA
TTITLE4=BONIATO CON BACALAO
TTITLE5=LA ROSA ORIENTAL
TTITLE6=OBSECION Y DOS ALMAS
TTITLE7=ALLI
TTITLE8=CUIDADITO
TTITLE9=MUEVE LA CINTURA
TTITLE10=PINTATE LOS LABIOS
TTITLE11=QUE PASA CON NICOLAZA
TTITLE12=HASTA SIEMPRE
TTITLE13=GUANTANAMERA
TTITLE14=LA CUCARACHA
EXTD=YEAR: 2002
EXTT0=
EXTT1=
EXTT2=
EXTT3=
EXTT4=
EXTT5=
EXTT6=
EXTT7=
EXTT8=
EXTT9=
EXTT10=
EXTT11=
EXTT12=
EXTT13=
EXTT14=
PLAYORDER=
